name Walk6.mot
datacolumns 19
datarows 25
range 3.99500000 4.11500000
endheader

                time	   L_ground_force_vx	   L_ground_force_vy	   L_ground_force_vz	   L_ground_force_px	   L_ground_force_py	   L_ground_force_pz	   R_ground_force_vx	   R_ground_force_vy	   R_ground_force_vz	   R_ground_force_px	   R_ground_force_py	   R_ground_force_pz	   L_ground_torque_x	   L_ground_torque_y	   L_ground_torque_z	   R_ground_torque_x	   R_ground_torque_y	   R_ground_torque_z	
          3.99500000	         23.91488278	        998.29655393	         70.89192895	         -0.27743547	          0.00000000	         -0.10179070	         -0.02131273	          0.40652180	          0.02867415	          0.00014333	          0.00000000	          0.00014197	          0.00000000	          0.69078684	          0.00000000	          0.00000000	          0.00849735	          0.00000000	
          4.00000000	         25.78722446	       1000.62746106	         71.58145520	         -0.27562723	          0.00000000	         -0.10182677	         -0.03284183	          0.48880412	          0.03003251	          0.00015725	          0.00000000	          0.00015408	          0.00000000	          0.73800755	          0.00000000	          0.00000000	          0.01105032	          0.00000000	
          4.00500000	         27.83924259	       1002.46805338	         72.19631212	         -0.27386408	          0.00000000	         -0.10184929	         -0.04676975	          0.55683024	          0.02844686	          0.00015957	          0.00000000	          0.00015396	          0.00000000	          0.78190298	          0.00000000	          0.00000000	          0.01366856	          0.00000000	
          4.01000000	         30.10581146	       1003.93150540	         72.73009792	         -0.27216498	          0.00000000	         -0.10185838	         -0.06272065	          0.59423598	          0.02246593	          0.00014350	          0.00000000	          0.00013478	          0.00000000	          0.82155902	          0.00000000	          0.00000000	          0.01606568	          0.00000000	
          4.01500000	         32.61505443	       1005.11930997	         73.18030540	         -0.27054617	          0.00000000	         -0.10185403	         -0.07985893	          0.57927976	          0.01036871	          0.00010074	          0.00000000	          0.00008825	          0.00000000	          0.85638388	          0.00000000	          0.00000000	          0.01782234	          0.00000000	
          4.02000000	         35.38677536	       1006.11563190	         73.54769122	         -0.26902045	          0.00000000	         -0.10183768	         -0.09673518	          0.48451586	         -0.00977420	          0.00002164	          0.00000000	          0.00000481	          0.00000000	          0.88626213	          0.00000000	          0.00000000	          0.01836365	          0.00000000	
          4.02500000	         38.43157876	       1006.98505681	         73.83438603	         -0.26759723	          0.00000000	         -0.10181208	         -0.11112148	          0.27698855	         -0.03997922	         -0.00010437	          0.00000000	         -0.00012589	          0.00000000	          0.91169006	          0.00000000	          0.00000000	          0.01694301	          0.00000000	
          4.03000000	         41.74928847	       1007.77320285	         74.04358624	         -0.26628306	          0.00000000	         -0.10177949	         -0.11985080	         -0.08078579	         -0.08214974	         -0.00028801	          0.00000000	         -0.00031419	          0.00000000	          0.93319970	          0.00000000	          0.00000000	          0.01263813	          0.00000000	
          4.03500000	         45.32787209	       1008.50688298	         74.17841011	         -0.26508128	          0.00000000	         -0.10174199	         -0.11868215	         -0.62872868	         -0.13777823	         -0.00053884	          0.00000000	         -0.00056906	          0.00000000	          0.95094044	          0.00000000	          0.00000000	          0.00436656	          0.00000000	
          4.04000000	         49.14338460	       1009.19664153	         74.24273060	         -0.26399226	          0.00000000	         -0.10170165	         -0.10222294	         -1.40563980	         -0.20753225	         -0.00086353	          0.00000000	         -0.00089633	          0.00000000	          0.96454587	          0.00000000	          0.00000000	         -0.00907048	          0.00000000	
          4.04500000	         53.16208621	       1009.84235348	         74.24337699	         -0.26301365	          0.00000000	         -0.10166093	         -0.06394982	         -2.44378439	         -0.29071069	         -0.00126335	          0.00000000	         -0.00129611	          0.00000000	          0.97333823	          0.00000000	          0.00000000	         -0.02890528	          0.00000000	
          4.05000000	         57.34586301	       1010.43723611	         74.19296483	         -0.26214009	          0.00000000	         -0.10162096	          0.00361931	         -3.76125876	         -0.38456468	         -0.00173102	          0.00000000	         -0.00175969	          0.00000000	          0.97652670	          0.00000000	          0.00000000	         -0.05627044	          0.00000000	
          4.05500000	         61.65625285	       1010.97123590	         74.11177075	         -0.26136463	          0.00000000	         -0.10158127	          0.10853888	         -5.35183274	         -0.48349105	         -0.00224680	          0.00000000	         -0.00226556	          0.00000000	          0.97385822	          0.00000000	          0.00000000	         -0.09200338	          0.00000000	
          4.06000000	         66.05661508	       1011.43044757	         74.02790232	         -0.26067927	          0.00000000	         -0.10154163	          0.25876243	         -7.17211027	         -0.57812681	         -0.00277401	          0.00000000	         -0.00277500	          0.00000000	          0.96574627	          0.00000000	          0.00000000	         -0.13637800	          0.00000000	
          4.06500000	         70.51371427	       1011.79377830	         73.97387966	         -0.26007474	          0.00000000	         -0.10150357	          0.46110533	         -9.12609153	         -0.65440063	         -0.00325401	          0.00000000	         -0.00322717	          0.00000000	          0.95408959	          0.00000000	          0.00000000	         -0.18875566	          0.00000000	
          4.07000000	         74.99780172	       1012.02816750	         73.98268731	         -0.25954110	          0.00000000	         -0.10146951	          0.71976749	        -11.04758692	         -0.69263450	         -0.00360121	          0.00000000	         -0.00353427	          0.00000000	          0.94197727	          0.00000000	          0.00000000	         -0.24715343	          0.00000000	
          4.07500000	         79.48259600	       1012.08628425	         74.08475785	         -0.25906866	          0.00000000	         -0.10144199	          1.03435249	        -12.68145015	         -0.66683433	         -0.00369849	          0.00000000	         -0.00357729	          0.00000000	          0.93343805	          0.00000000	          0.00000000	         -0.30773678	          0.00000000	
          4.08000000	         83.94673497	       1011.90515375	         74.30462869	         -0.25864786	          0.00000000	         -0.10142297	          1.39734523	        -13.66528442	         -0.54436267	         -0.00339407	          0.00000000	         -0.00320319	          0.00000000	          0.93282801	          0.00000000	          0.00000000	         -0.36425664	          0.00000000	
          4.08500000	         88.37387481	       1011.40471063	         74.65728257	         -0.25826888	          0.00000000	         -0.10141403	          1.79105686	        -13.51414232	         -0.28624765	         -0.00250077	          0.00000000	         -0.00222479	          0.00000000	          0.94413829	          0.00000000	          0.00000000	         -0.40746948	          0.00000000	
          4.09000000	         92.75291405	       1010.48865613	         75.14495664	         -0.25792243	          0.00000000	         -0.10141563	          2.18411517	        -11.61178118	          0.15155404	         -0.00079936	          0.00000000	         -0.00042471	          0.00000000	          0.97013375	          0.00000000	          0.00000000	         -0.42460229	          0.00000000	
          4.09500000	         97.07599435	       1009.04989530	         75.75532712	         -0.25760041	          0.00000000	         -0.10142710	          2.52767959	         -7.21321913	          0.81556225	          0.00195236	          0.00000000	          0.00243468	          0.00000000	          1.01220269	          0.00000000	          0.00000000	         -0.39895346	          0.00000000	
          4.10000000	        101.33592387	       1006.97456490	         76.46177130	         -0.25729599	          0.00000000	         -0.10144675	          2.75169311	          0.53540176	          1.75042146	          0.00600256	          0.00000000	          0.00659330	          0.00000000	          1.07024205	          0.00000000	          0.00000000	         -0.30975502	          0.00000000	
          4.10500000	        105.52408509	       1004.14334708	         77.22535837	         -0.25700338	          0.00000000	         -0.10147182	          2.76165422	         12.55241387	          2.99234582	          0.01157808	          0.00000000	          0.01226501	          0.00000000	          1.14296894	          0.00000000	          0.00000000	         -0.13245930	          0.00000000	
          4.11000000	        109.62915312	       1000.43141637	         77.99649288	         -0.25671686	          0.00000000	         -0.10149832	          2.43659786	         29.74343364	          4.55993721	          0.01884452	          0.00000000	          0.01959675	          0.00000000	          1.22826725	          0.00000000	          0.00000000	          0.16034800	          0.00000000	
          4.11500000	        113.63486730	        995.70987235	         78.71725708	         -0.25643063	          0.00000000	         -0.10152112	          1.62921063	         52.88256050	          6.44203911	          0.02785161	          0.00000000	          0.02861288	          0.00000000	          1.32347259	          0.00000000	          0.00000000	          0.59717035	          0.00000000	
